<svg width="980" height="250" viewBox="0 0 980 250" xmlns="http://www.w3.org/2000/svg" role="img" aria-label="Automatic segments and approval boundary">
  <defs>
    <marker id="arrow-auto" markerWidth="10" markerHeight="10" refX="8" refY="3" orient="auto" markerUnits="strokeWidth">
      <path d="M0,0 L0,6 L9,3 z" fill="#0f766e" />
    </marker>
    <marker id="arrow-risk" markerWidth="10" markerHeight="10" refX="8" refY="3" orient="auto" markerUnits="strokeWidth">
      <path d="M0,0 L0,6 L9,3 z" fill="#dc2626" />
    </marker>
    <style>
      .box { rx:14; stroke-width:1.5; }
      .autoBox { fill:#ecfdf5; stroke:#0f766e; }
      .riskBox { fill:#fef2f2; stroke:#dc2626; }
      .gateBox { fill:#fff7ed; stroke:#ea580c; }
      .label { font: 14px sans-serif; fill:#0f172a; text-anchor:middle; dominant-baseline:middle; }
      .small { font: 12px sans-serif; fill:#475569; text-anchor:middle; }
      .autoLine { stroke:#0f766e; stroke-width:2; marker-end:url(#arrow-auto); }
      .riskLine { stroke:#dc2626; stroke-width:2.3; marker-end:url(#arrow-risk); }
    </style>
  </defs>
  <text x="490" y="25" class="small">승인 모델: 대부분은 자동 전이, 사용자의 명시 승인은 commit → push에 집중</text>

  <rect class="box autoBox" x="50" y="55" width="250" height="70" />
  <text class="label" x="175" y="82">자동 준비 체인</text>
  <text class="small" x="175" y="105">interview → plan → plan_review</text>

  <line class="autoLine" x1="305" y1="90" x2="375" y2="90" />

  <rect class="box gateBox" x="380" y="55" width="220" height="70" />
  <text class="label" x="490" y="82">DPAA/SBADR gate</text>
  <text class="small" x="490" y="105">PASS면 implement 자동 진입</text>

  <line class="autoLine" x1="605" y1="90" x2="675" y2="90" />

  <rect class="box autoBox" x="680" y="55" width="250" height="70" />
  <text class="label" x="805" y="82">자동 실행/문서 체인</text>
  <text class="small" x="805" y="105">implement → review → document → commit</text>

  <rect class="box riskBox" x="350" y="160" width="280" height="65" />
  <text class="label" x="490" y="185">유일한 사용자 승인 경계</text>
  <text class="small" x="490" y="207">commit → push</text>

  <line class="riskLine" x1="805" y1="130" x2="625" y2="180" />
  <line class="riskLine" x1="490" y1="225" x2="490" y2="242" />
</svg>
