<svg xmlns="http://www.w3.org/2000/svg" width="1200" height="560" viewBox="0 0 1200 560" role="img" aria-labelledby="title desc">
  <title id="title">Before and after applying Pi Workflow Harness</title>
  <desc id="desc">Comparison between an unstructured AI coding session and a governed harness session.</desc>
  <defs>
    <linearGradient id="bg" x1="0" y1="0" x2="1" y2="1"><stop offset="0%" stop-color="#0d1117"/><stop offset="100%" stop-color="#101827"/></linearGradient>
    <linearGradient id="bad" x1="0" y1="0" x2="1" y2="1"><stop offset="0%" stop-color="#ef4444"/><stop offset="100%" stop-color="#f97316"/></linearGradient>
    <linearGradient id="good" x1="0" y1="0" x2="1" y2="1"><stop offset="0%" stop-color="#22d3ee"/><stop offset="100%" stop-color="#22c55e"/></linearGradient>
    <filter id="shadow" x="-20%" y="-20%" width="140%" height="140%"><feDropShadow dx="0" dy="12" stdDeviation="16" flood-color="#000" flood-opacity="0.30"/></filter>
    <marker id="arrow" viewBox="0 0 12 12" refX="10" refY="6" markerWidth="9" markerHeight="9" orient="auto"><path d="M1 1 L11 6 L1 11 L4 6 Z" fill="#8b949e"/></marker>
    <style>
      .title{fill:#f0f6fc;font:800 34px ui-sans-serif,system-ui,Segoe UI,sans-serif}.label{fill:#f0f6fc;font:800 25px ui-sans-serif,system-ui,Segoe UI,sans-serif}.text{fill:#c9d1d9;font:600 17px ui-sans-serif,system-ui,Segoe UI,sans-serif}.muted{fill:#8b949e;font:600 14px ui-sans-serif,system-ui,Segoe UI,sans-serif}.card{fill:#161b22;stroke:#30363d;stroke-width:1.5;filter:url(#shadow)}.pill{fill:#0d1117;stroke:#30363d;stroke-width:1}.line{stroke:#8b949e;stroke-width:3;fill:none;marker-end:url(#arrow);stroke-linecap:round;stroke-linejoin:round}.halo{stroke:#22d3ee;stroke-width:9;fill:none;opacity:.10;stroke-linecap:round}.badge{fill:#0d1117;stroke:#30363d;stroke-width:1}
    </style>
  </defs>
  <rect width="1200" height="560" rx="32" fill="url(#bg)"/>
  <text x="60" y="76" class="title">From loose agent actions to governed delivery</text>

  <g transform="translate(70 125)">
    <rect class="card" width="455" height="360" rx="28"/>
    <circle cx="48" cy="54" r="18" fill="url(#bad)"/>
    <text x="82" y="63" class="label">Unstructured session</text>
    <g transform="translate(42 112)">
      <rect class="pill" width="330" height="42" rx="21"/><text x="24" y="27" class="text">Immediate edits before scope</text>
      <rect class="pill" y="58" width="300" height="42" rx="21"/><text x="24" y="85" class="text">Plan ambiguity is invisible</text>
      <rect class="pill" y="116" width="352" height="42" rx="21"/><text x="24" y="143" class="text">Review and tests become optional</text>
      <rect class="pill" y="174" width="318" height="42" rx="21"/><text x="24" y="201" class="text">Risky push can be rushed</text>
    </g>
    <rect x="42" y="305" width="198" height="34" rx="17" class="badge"/>
    <text x="62" y="327" class="muted">hard to audit afterward</text>
  </g>

  <g>
    <path class="halo" d="M548 305 C575 280, 615 280, 642 305"/>
    <path class="line" d="M548 305 C576 278, 614 278, 642 305"/>
    <rect x="552" y="328" width="88" height="30" rx="15" fill="#0d1117" stroke="#30363d"/>
    <text x="596" y="348" class="muted" text-anchor="middle">harness</text>
  </g>

  <g transform="translate(675 125)">
    <rect class="card" width="455" height="360" rx="28"/>
    <circle cx="48" cy="54" r="18" fill="url(#good)"/>
    <text x="82" y="63" class="label">Harnessed session</text>
    <g transform="translate(42 112)">
      <rect class="pill" width="355" height="42" rx="21"/><text x="24" y="27" class="text">Scope captured through interview</text>
      <rect class="pill" y="58" width="332" height="42" rx="21"/><text x="24" y="85" class="text">Plan checked by ambiguity guard</text>
      <rect class="pill" y="116" width="360" height="42" rx="21"/><text x="24" y="143" class="text">Implementation tied to evidence</text>
      <rect class="pill" y="174" width="342" height="42" rx="21"/><text x="24" y="201" class="text">Review package before completion</text>
    </g>
    <rect x="42" y="305" width="226" height="34" rx="17" class="badge"/>
    <text x="62" y="327" class="muted">evidence remains reusable</text>
  </g>
</svg>
